<mxfile host="65bd71144e">
    <diagram id="8PGR3U10r7HoxpeFvIGb" name="Page-1">
        <mxGraphModel dx="192" dy="325" grid="0" gridSize="10" guides="1" tooltips="1" connect="1" arrows="1" fold="1" page="1" pageScale="1" pageWidth="850" pageHeight="1100" background="#DEDEDE" math="0" shadow="0">
            <root>
                <mxCell id="0"/>
                <mxCell id="1" parent="0"/>
                <mxCell id="2" value="&lt;font color=&quot;#000000&quot;&gt;Utilisateur&lt;/font&gt;" style="shape=umlActor;verticalLabelPosition=bottom;verticalAlign=top;html=1;outlineConnect=0;strokeColor=#000000;" parent="1" vertex="1">
                    <mxGeometry x="698" y="424" width="99" height="182" as="geometry"/>
                </mxCell>
                <mxCell id="3" value="" style="whiteSpace=wrap;html=1;fillColor=#eeeeee;strokeColor=#36393d;fontStyle=1" parent="1" vertex="1">
                    <mxGeometry x="26" y="265" width="620" height="693" as="geometry"/>
                </mxCell>
                <mxCell id="5" value="&lt;font color=&quot;#000000&quot;&gt;Faire tout ce que fait le visiteur&lt;/font&gt;" style="ellipse;whiteSpace=wrap;html=1;labelBackgroundColor=#EBEBEB;strokeColor=#36393d;fillColor=#eeeeee;" parent="1" vertex="1">
                    <mxGeometry x="178" y="281" width="177" height="58" as="geometry"/>
                </mxCell>
                <mxCell id="10" value="" style="endArrow=classic;html=1;strokeColor=#000000;fontColor=#000000;exitX=0.5;exitY=0.5;exitDx=0;exitDy=0;exitPerimeter=0;entryX=1;entryY=0.5;entryDx=0;entryDy=0;" parent="1" source="2" target="5" edge="1">
                    <mxGeometry width="50" height="50" relative="1" as="geometry">
                        <mxPoint x="198" y="494" as="sourcePoint"/>
                        <mxPoint x="248" y="444" as="targetPoint"/>
                    </mxGeometry>
                </mxCell>
                <mxCell id="18" value="&lt;font color=&quot;#000000&quot;&gt;Se connecter&lt;/font&gt;" style="ellipse;whiteSpace=wrap;html=1;labelBackgroundColor=#EBEBEB;strokeColor=#36393d;fillColor=#eeeeee;" parent="1" vertex="1">
                    <mxGeometry x="289" y="381" width="179" height="55" as="geometry"/>
                </mxCell>
                <mxCell id="20" value="" style="endArrow=classic;html=1;strokeColor=#000000;fontColor=#000000;entryX=1;entryY=0.5;entryDx=0;entryDy=0;exitX=0.5;exitY=0.5;exitDx=0;exitDy=0;exitPerimeter=0;" parent="1" source="2" target="18" edge="1">
                    <mxGeometry width="50" height="50" relative="1" as="geometry">
                        <mxPoint x="713" y="500" as="sourcePoint"/>
                        <mxPoint x="383.00000000000045" y="327" as="targetPoint"/>
                    </mxGeometry>
                </mxCell>
                <mxCell id="21" value="" style="endArrow=classic;html=1;strokeColor=#000000;fontColor=#000000;entryX=1;entryY=0.5;entryDx=0;entryDy=0;exitX=0.5;exitY=0.5;exitDx=0;exitDy=0;exitPerimeter=0;" parent="1" source="2" target="59" edge="1">
                    <mxGeometry width="50" height="50" relative="1" as="geometry">
                        <mxPoint x="714" y="496" as="sourcePoint"/>
                        <mxPoint x="377.0000000000032" y="679" as="targetPoint"/>
                    </mxGeometry>
                </mxCell>
                <mxCell id="22" value="" style="endArrow=classic;html=1;strokeColor=#000000;fontColor=#000000;entryX=1;entryY=0.5;entryDx=0;entryDy=0;exitX=0.5;exitY=0.5;exitDx=0;exitDy=0;exitPerimeter=0;" parent="1" source="2" target="62" edge="1">
                    <mxGeometry width="50" height="50" relative="1" as="geometry">
                        <mxPoint x="713" y="501" as="sourcePoint"/>
                        <mxPoint x="568.0000000000005" y="753" as="targetPoint"/>
                    </mxGeometry>
                </mxCell>
                <mxCell id="24" value="" style="endArrow=classic;html=1;strokeColor=#000000;fontColor=#000000;entryX=1;entryY=0.5;entryDx=0;entryDy=0;exitX=0.5;exitY=0.5;exitDx=0;exitDy=0;exitPerimeter=0;" parent="1" source="2" target="63" edge="1">
                    <mxGeometry width="50" height="50" relative="1" as="geometry">
                        <mxPoint x="712" y="501" as="sourcePoint"/>
                        <mxPoint x="574.0000000000032" y="909" as="targetPoint"/>
                    </mxGeometry>
                </mxCell>
                <mxCell id="44" value="&lt;font color=&quot;#000000&quot;&gt;Garder sa session active&lt;/font&gt;" style="ellipse;whiteSpace=wrap;html=1;fillColor=#eeeeee;strokeColor=#36393d;labelBackgroundColor=#EBEBEB;" parent="1" vertex="1">
                    <mxGeometry x="34" y="339" width="144" height="59" as="geometry"/>
                </mxCell>
                <mxCell id="47" value="&lt;font color=&quot;#000000&quot;&gt;Réinitialiser son mot de passe&lt;/font&gt;" style="ellipse;whiteSpace=wrap;html=1;fillColor=#eeeeee;strokeColor=#36393d;labelBackgroundColor=#EBEBEB;" parent="1" vertex="1">
                    <mxGeometry x="37" y="421" width="167" height="57" as="geometry"/>
                </mxCell>
                <mxCell id="53" value="" style="endArrow=classic;html=1;strokeColor=#000000;entryX=0;entryY=0.5;entryDx=0;entryDy=0;exitX=1;exitY=0.5;exitDx=0;exitDy=0;" parent="1" source="44" target="18" edge="1">
                    <mxGeometry width="50" height="50" relative="1" as="geometry">
                        <mxPoint x="172" y="420" as="sourcePoint"/>
                        <mxPoint x="222" y="478" as="targetPoint"/>
                    </mxGeometry>
                </mxCell>
                <mxCell id="54" value="&amp;lt;&amp;lt;extends&amp;gt;&amp;gt;" style="edgeLabel;html=1;align=center;verticalAlign=middle;resizable=0;points=[];" parent="53" vertex="1" connectable="0">
                    <mxGeometry x="-0.2328" relative="1" as="geometry">
                        <mxPoint as="offset"/>
                    </mxGeometry>
                </mxCell>
                <mxCell id="55" value="" style="endArrow=classic;html=1;strokeColor=#000000;entryX=0.039;entryY=0.748;entryDx=0;entryDy=0;exitX=1;exitY=0.5;exitDx=0;exitDy=0;entryPerimeter=0;" parent="1" source="47" target="18" edge="1">
                    <mxGeometry width="50" height="50" relative="1" as="geometry">
                        <mxPoint x="195" y="430.5" as="sourcePoint"/>
                        <mxPoint x="314.0000000000002" y="497.5" as="targetPoint"/>
                    </mxGeometry>
                </mxCell>
                <mxCell id="56" value="&amp;lt;&amp;lt;extends&amp;gt;&amp;gt;" style="edgeLabel;html=1;align=center;verticalAlign=middle;resizable=0;points=[];" parent="55" vertex="1" connectable="0">
                    <mxGeometry x="-0.2328" relative="1" as="geometry">
                        <mxPoint as="offset"/>
                    </mxGeometry>
                </mxCell>
                <mxCell id="57" value="&lt;font color=&quot;#000000&quot;&gt;Ajouter un produit au panier&lt;/font&gt;" style="ellipse;whiteSpace=wrap;html=1;labelBackgroundColor=#EBEBEB;strokeColor=#36393d;fillColor=#eeeeee;" parent="1" vertex="1">
                    <mxGeometry x="255" y="555" width="179" height="55" as="geometry"/>
                </mxCell>
                <mxCell id="58" value="&lt;font color=&quot;#000000&quot;&gt;Consulter son panier&lt;/font&gt;" style="ellipse;whiteSpace=wrap;html=1;labelBackgroundColor=#EBEBEB;strokeColor=#36393d;fillColor=#eeeeee;" parent="1" vertex="1">
                    <mxGeometry x="255" y="488" width="179" height="55" as="geometry"/>
                </mxCell>
                <mxCell id="59" value="&lt;font color=&quot;#000000&quot;&gt;Passer une commande&lt;/font&gt;" style="ellipse;whiteSpace=wrap;html=1;labelBackgroundColor=#EBEBEB;strokeColor=#36393d;fillColor=#eeeeee;" parent="1" vertex="1">
                    <mxGeometry x="249" y="617" width="179" height="55" as="geometry"/>
                </mxCell>
                <mxCell id="60" value="&lt;font color=&quot;#000000&quot;&gt;Afficher les commandes en cours&lt;/font&gt;" style="ellipse;whiteSpace=wrap;html=1;labelBackgroundColor=#EBEBEB;strokeColor=#36393d;fillColor=#eeeeee;" parent="1" vertex="1">
                    <mxGeometry x="233" y="750" width="198" height="55" as="geometry"/>
                </mxCell>
                <mxCell id="61" value="&lt;font color=&quot;#000000&quot;&gt;Payer la commande&lt;/font&gt;" style="ellipse;whiteSpace=wrap;html=1;labelBackgroundColor=#EBEBEB;strokeColor=#36393d;fillColor=#eeeeee;" parent="1" vertex="1">
                    <mxGeometry x="236" y="686" width="198" height="55" as="geometry"/>
                </mxCell>
                <mxCell id="62" value="&lt;font color=&quot;#000000&quot;&gt;Modifier son profil&lt;/font&gt;" style="ellipse;whiteSpace=wrap;html=1;labelBackgroundColor=#EBEBEB;strokeColor=#36393d;fillColor=#eeeeee;" parent="1" vertex="1">
                    <mxGeometry x="236" y="822" width="198" height="55" as="geometry"/>
                </mxCell>
                <mxCell id="63" value="&lt;font color=&quot;#000000&quot;&gt;Se déconnecter&lt;/font&gt;" style="ellipse;whiteSpace=wrap;html=1;labelBackgroundColor=#EBEBEB;strokeColor=#36393d;fillColor=#eeeeee;" parent="1" vertex="1">
                    <mxGeometry x="242" y="886" width="198" height="57" as="geometry"/>
                </mxCell>
                <mxCell id="64" value="" style="endArrow=classic;html=1;strokeColor=#000000;fontColor=#000000;entryX=1;entryY=0.5;entryDx=0;entryDy=0;exitX=0.5;exitY=0.5;exitDx=0;exitDy=0;exitPerimeter=0;" parent="1" source="2" target="61" edge="1">
                    <mxGeometry width="50" height="50" relative="1" as="geometry">
                        <mxPoint x="723" y="511" as="sourcePoint"/>
                        <mxPoint x="440.9999999999991" y="845.5" as="targetPoint"/>
                    </mxGeometry>
                </mxCell>
                <mxCell id="65" value="" style="endArrow=classic;html=1;strokeColor=#000000;fontColor=#000000;entryX=1;entryY=0.5;entryDx=0;entryDy=0;exitX=0.5;exitY=0.5;exitDx=0;exitDy=0;exitPerimeter=0;" parent="1" source="2" target="60" edge="1">
                    <mxGeometry width="50" height="50" relative="1" as="geometry">
                        <mxPoint x="733" y="521" as="sourcePoint"/>
                        <mxPoint x="437.9999999999993" y="778.5" as="targetPoint"/>
                    </mxGeometry>
                </mxCell>
                <mxCell id="66" value="" style="endArrow=classic;html=1;strokeColor=#000000;fontColor=#000000;entryX=1;entryY=0.5;entryDx=0;entryDy=0;exitX=0.5;exitY=0.5;exitDx=0;exitDy=0;exitPerimeter=0;" parent="1" source="2" target="57" edge="1">
                    <mxGeometry width="50" height="50" relative="1" as="geometry">
                        <mxPoint x="723.9999999999998" y="506" as="sourcePoint"/>
                        <mxPoint x="438.0000000000016" y="654.5" as="targetPoint"/>
                    </mxGeometry>
                </mxCell>
                <mxCell id="67" value="" style="endArrow=classic;html=1;strokeColor=#000000;fontColor=#000000;entryX=1;entryY=0.5;entryDx=0;entryDy=0;exitX=0.5;exitY=0.5;exitDx=0;exitDy=0;exitPerimeter=0;" parent="1" source="2" target="58" edge="1">
                    <mxGeometry width="50" height="50" relative="1" as="geometry">
                        <mxPoint x="733.9999999999998" y="516" as="sourcePoint"/>
                        <mxPoint x="443.9999999999984" y="592.5" as="targetPoint"/>
                    </mxGeometry>
                </mxCell>
                <mxCell id="68" value="" style="endArrow=classic;html=1;strokeColor=#000000;fontColor=#000000;entryX=1;entryY=0.5;entryDx=0;entryDy=0;" edge="1" parent="1">
                    <mxGeometry width="50" height="50" relative="1" as="geometry">
                        <mxPoint x="723.9999999999998" y="506" as="sourcePoint"/>
                        <mxPoint x="433.9999999999984" y="582.5" as="targetPoint"/>
                    </mxGeometry>
                </mxCell>
            </root>
        </mxGraphModel>
    </diagram>
</mxfile>